<svg width="50" height="50" viewBox="0 0 50 50" fill="none" xmlns="http://www.w3.org/2000/svg">
<g clip-path="url(#clip0_129_2663)">
<path d="M35.8237 13.8785C36.5967 13.8242 36.6768 14.1484 37.3368 14.3441C37.6976 14.4511 38.6268 14.4128 39.0202 14.4059C39.4937 14.3942 40.1538 13.7893 40.6124 13.8708C41.4164 14.0137 42.619 14.7155 43.19 15.3028C43.4783 15.5993 43.3091 16.3737 43.4164 16.6727C43.569 17.0982 44.0089 17.9499 44.2857 18.267L44.3109 18.2954C44.678 18.7159 45.415 19.0071 45.5927 19.4727C45.6814 19.7049 45.7161 20.5842 45.7076 20.8304C45.6848 21.4954 45.786 22.3654 45.1257 22.7538C45.0146 22.8192 44.5013 23.1503 44.4259 23.2347C44.1579 23.5346 43.8142 24.1888 43.617 24.5307C43.2554 25.1576 43.5011 25.7001 43.2646 26.2379C43.0425 26.743 41.3245 27.6617 40.8221 27.8297C40.1349 27.9094 39.8255 27.4771 39.2819 27.3472C38.8932 27.2543 37.7216 27.3007 37.2855 27.36C37.0271 27.3951 36.5749 27.742 36.3038 27.8196C35.7848 27.9683 35.0842 27.4693 34.6246 27.2233C34.2892 27.0438 33.6859 26.6782 33.4443 26.3789C33.1321 25.992 33.322 25.3747 33.2091 24.9787C33.0858 24.5466 32.6596 23.9078 32.4334 23.5178C32.034 22.8291 31.1846 22.838 31.0158 22.0933C30.9325 21.7239 30.9541 21.1134 30.9456 20.7588C30.9148 19.4613 31.0275 19.1147 32.162 18.4997C32.3874 18.3776 32.9044 17.3351 33.0757 17.0469C33.3312 16.6173 33.15 15.7787 33.448 15.3313C33.7358 14.8611 35.3532 13.9941 35.8237 13.8785ZM32.46 20.077C32.4121 20.5737 32.4272 21.1088 32.4302 21.6103C32.586 21.6938 32.97 21.8946 33.0983 22.0151C33.7012 22.5815 34.3123 23.7162 34.6158 24.4849C34.7378 24.7936 34.7224 25.2324 34.7027 25.5509C35.1604 25.821 35.581 26.0713 36.0587 26.3082C36.2188 26.2098 36.5519 26.0012 36.7309 25.9482C37.5449 25.7069 38.8584 25.7444 39.6895 25.8989C39.9904 25.9548 40.3342 26.1615 40.611 26.2882C40.9648 26.1252 41.6003 25.7669 41.9157 25.5345C41.9321 24.4207 42.1587 24.086 42.7097 23.1483C43.1723 22.361 43.3298 22.0334 44.1891 21.635C44.2145 21.117 44.2213 20.5983 44.2093 20.0798C44.0627 19.9955 43.6385 19.7562 43.5168 19.6386C42.9489 19.0901 42.2968 17.9062 42.0145 17.1787C41.8705 16.8078 42.1534 16.2239 41.598 15.9185C41.2471 15.7257 40.9349 15.5481 40.601 15.3686C39.9494 15.7526 39.5566 15.9086 38.7803 15.8935C37.9434 15.8772 37.0295 16.0124 36.2917 15.5151C36.2112 15.4607 36.0963 15.4061 35.9996 15.3797C35.6926 15.5493 34.7484 16.0086 34.7489 16.2549C34.7516 17.3384 34.2591 17.9771 33.7277 18.8783C33.4653 19.3233 33.1777 19.656 32.6955 19.9438C32.618 19.99 32.5395 20.0344 32.46 20.077Z" fill="white"/>
<path d="M37.7322 17.6035C39.5259 17.2774 41.2432 18.4707 41.5633 20.2654C41.8834 22.0601 40.6846 23.7735 38.8888 24.0877C37.1014 24.4005 35.3977 23.2084 35.0791 21.422C34.7604 19.6356 35.9468 17.928 37.7322 17.6035ZM38.6965 22.6228C39.68 22.416 40.3097 21.451 40.1029 20.4674C39.8962 19.4839 38.9313 18.8542 37.9477 19.0609C36.964 19.2676 36.3342 20.2327 36.541 21.2163C36.7478 22.1999 37.7129 22.8296 38.6965 22.6228Z" fill="white"/>
<path d="M9.16314 13.8785C9.88238 13.8342 9.9541 14.0625 10.5564 14.302C11.0078 14.4259 12.1589 14.4812 12.591 14.3649C13.2446 14.1889 13.6806 13.6003 14.4756 13.9993C15.0023 14.2635 16.1091 14.7788 16.4831 15.2358C16.5272 15.2901 16.5642 15.3499 16.5934 15.4135C16.8032 15.8635 16.7125 16.25 16.8126 16.7201C16.9174 17.2123 17.3522 17.765 17.5893 18.2246C17.8455 18.721 18.7552 18.8855 18.9091 19.3888C19.0963 20.0014 19.1555 21.8526 18.8245 22.431C18.6637 22.7121 18.1051 22.9327 17.8722 23.1453C17.4914 23.4928 17.2187 24.0992 16.9776 24.5123C16.6509 25.0718 16.8352 25.7162 16.6273 26.2103C16.401 26.7479 14.7218 27.6199 14.1893 27.8294C13.5503 27.8988 13.2996 27.5466 12.7095 27.3852C12.2038 27.2468 11.2166 27.2685 10.6898 27.3684C10.4263 27.4184 9.99248 27.6886 9.69971 27.7902C9.32705 27.9196 8.90694 27.746 8.56827 27.5537C8.04151 27.2545 7.17329 26.8382 6.80147 26.3715C6.55313 26.0597 6.64214 25.2451 6.50684 24.8494C6.35244 24.3979 5.92827 23.7303 5.66294 23.33C5.39336 22.9234 4.52842 22.7775 4.3871 22.1816C4.28088 21.7812 4.30789 21.1782 4.29939 20.7988C4.26961 19.4699 4.35846 19.1593 5.51143 18.4906C5.77515 18.3376 6.2168 17.3532 6.40811 17.0643C6.74868 16.5499 6.48604 15.8737 6.78311 15.343C7.03765 14.8699 8.69502 14.0029 9.16314 13.8785ZM8.08467 16.1434C8.04307 17.0828 8.01226 17.2138 7.57041 18.0315C6.96895 19.1446 6.8209 19.4077 5.80547 20.099C5.769 20.5978 5.77256 21.1117 5.76861 21.6127C6.4795 21.9634 6.72764 22.1935 7.12813 22.8774C7.73326 23.9107 8.08467 24.293 8.04605 25.5332C8.39278 25.7599 9.0273 26.1337 9.40586 26.3077C9.64336 26.1661 9.93238 25.9776 10.2119 25.9135C11.0428 25.7231 12.2906 25.7421 13.1267 25.8984C13.3844 25.9466 13.7959 26.2893 14.0279 26.2608C14.4434 26.0474 14.8524 25.806 15.2579 25.5729C15.2773 24.4511 15.4733 24.1449 16.0297 23.1979C16.5023 22.3934 16.6884 22.0205 17.5672 21.5983C17.5776 21.2072 17.5969 20.4716 17.5503 20.0902C17.3505 19.9728 16.9866 19.7679 16.8217 19.5972C16.2505 19.006 15.6028 17.8559 15.3449 17.076C15.2569 16.8099 15.2761 16.3854 15.2802 16.1142L13.9585 15.3584C12.9764 15.9399 12.475 15.9179 11.3629 15.8961C10.9822 15.8886 10.611 15.8904 10.2385 15.7923C9.87788 15.711 9.64424 15.4058 9.28184 15.4213C8.8708 15.6479 8.46704 15.8684 8.08467 16.1434Z" fill="white"/>
<path d="M11.0899 17.6034C12.8849 17.2805 14.6004 18.4781 14.9158 20.2744C15.2312 22.0708 14.0264 23.7812 12.2288 24.0891C10.4418 24.3952 8.74357 23.199 8.43004 21.4133C8.11647 19.6276 9.30553 17.9244 11.0899 17.6034ZM12.0065 22.6311C12.9999 22.4453 13.6516 21.4856 13.4582 20.4937C13.2647 19.5018 12.3002 18.8574 11.3097 19.0584C10.3299 19.2573 9.69401 20.2092 9.88537 21.1905C10.0768 22.1718 11.0238 22.815 12.0065 22.6311Z" fill="white"/>
<path d="M24.5793 5.34811C27.0175 5.11745 29.1798 6.90993 29.4052 9.34865C29.6305 11.7873 27.8334 13.9458 25.3942 14.1658C22.9625 14.3852 20.8121 12.5947 20.5874 10.1635C20.3628 7.73229 22.1486 5.57804 24.5793 5.34811ZM25.5615 12.6526C27.1615 12.3406 28.2063 10.7914 27.896 9.19108C27.5856 7.59074 26.0374 6.5444 24.4368 6.85319C22.8339 7.16237 21.7858 8.71315 22.0966 10.3157C22.4074 11.9183 23.9592 12.9649 25.5615 12.6526Z" fill="white"/>
<path d="M0 26.3675C0.430131 25.6308 0.553271 25.1673 1.50648 24.8906C2.51735 24.5971 4.04285 25.2833 4.38399 26.2971C4.90132 27.8345 5.12105 29.5297 5.6688 31.0779C6.43853 33.2158 7.8792 35.0472 9.77573 36.2987C10.2739 36.6309 11.0521 37.1781 11.682 37.0282C11.8833 36.9803 12.0306 36.8591 12.1341 36.682C12.9551 35.2773 10.2204 30.9641 13.0217 30.174C13.5592 30.0225 14.1686 30.0592 14.6574 30.3423C15.631 30.9061 18.2932 35.8618 19.3261 37.1695C19.8647 37.0122 20.3484 36.8722 20.878 37.1555C21.2998 37.3812 24.2088 40.262 24.3035 40.5599C24.3661 40.7566 24.3628 40.9482 24.2584 41.1286C24.0367 41.5112 21.5198 44.0404 21.0971 44.3915C20.9615 44.5042 20.7922 44.592 20.6201 44.6323C20.4337 44.676 20.22 44.6679 20.0547 44.5624C19.9194 44.4761 19.8459 44.3408 19.8157 44.1868C19.7633 43.9197 19.8224 43.7118 19.9738 43.4916C20.2222 43.1303 20.5764 42.8208 20.8866 42.513C21.4509 41.9532 22.0297 41.4039 22.5765 40.8271C22.0654 40.2545 20.7787 38.964 20.2058 38.4523C17.8744 40.6743 15.6466 43.0358 13.3412 45.288C13.1725 45.4528 12.9549 45.6647 12.8065 45.8434C13.5854 46.6219 14.39 47.4474 15.1809 48.2081C16.1678 47.3264 17.0529 46.2208 18.0907 45.399C18.318 45.2191 18.7726 45.3091 18.9767 45.5338C19.1008 45.6712 19.1645 45.8526 19.1532 46.0374C19.1344 46.332 18.8157 46.6902 18.6045 46.8849C17.6063 47.8055 16.6371 48.9668 15.6111 49.8408C15.5481 49.8945 15.4844 49.9473 15.42 49.9995H14.9551C14.2854 49.4937 11.9743 47.189 11.4428 46.4061C11.1818 46.0216 11.4517 45.2821 11.6258 44.8543C6.56191 42.0221 2.75911 37.3764 0.983227 31.8527C0.598921 30.6798 0.367653 29.4786 0.157848 28.2666C0.12378 28.0698 0.0967695 27.8528 0 27.6783V26.3675ZM12.8016 43.8058C13.1031 43.4044 13.9423 42.6037 14.3295 42.2172L17.1267 39.4275C17.3639 39.1909 18.147 38.489 18.1729 38.2153C18.0479 37.8983 17.7197 37.4253 17.5241 37.123C16.7566 35.9357 15.9954 34.7443 15.2406 33.549C15.0395 33.233 13.9757 31.2286 13.449 31.5415C13.0389 31.785 13.2561 32.8762 13.3365 33.249C13.5479 34.8637 14.4352 36.7715 12.8748 38.0111C10.6526 39.7783 7.34771 36.3812 6.04229 34.7982C4.62597 33.0807 3.97956 30.8114 3.50064 28.6784C3.26655 27.6358 3.234 26.1822 1.85021 26.3191C1.68272 26.4203 1.55892 26.5127 1.51782 26.7174C1.42153 27.1971 1.57468 27.8712 1.65203 28.3493C2.08761 31.0419 3.00898 33.5981 4.43253 35.9322C6.075 38.6035 8.26519 40.8963 10.8586 42.6591C11.3878 43.0207 12.2263 43.5525 12.8016 43.8058Z" fill="white"/>
<path d="M30.6797 37.2117C31.9246 35.0767 33.4707 32.933 34.7835 30.8297C35.2382 30.1012 36.295 29.9213 37.0666 30.2286C38.6023 30.84 38.3367 32.1795 38.1087 33.4633L37.7873 35.2438C37.6736 35.8839 37.4891 36.7379 38.287 36.9916C38.6522 37.1076 39.0563 36.979 39.376 36.8011C41.852 35.4236 43.7727 33.168 44.5395 30.4192C44.905 29.133 45.1461 27.8865 45.5012 26.6107C45.6808 25.9653 46.1635 25.3864 46.7565 25.0966C47.319 24.8216 48.0329 24.7327 48.6315 24.9492C49.4546 25.2469 49.648 25.7049 49.9996 26.4191V27.5572L49.9854 27.5976C49.8638 27.9483 49.7032 29.0016 49.6265 29.4172C49.4986 30.1097 49.3287 30.7939 49.1182 31.466C48.1344 34.7146 46.443 37.7048 44.1656 40.2218C43.7855 40.6346 43.165 41.5268 42.5536 41.3192C42.371 41.2553 42.2212 41.1216 42.1371 40.9474C42.0547 40.7784 42.0456 40.583 42.1119 40.4071C42.2645 39.9999 42.8938 39.4569 43.1946 39.1183C46.1403 35.8021 48.0035 31.6274 48.502 27.2195C48.5202 27.0584 48.5156 26.7598 48.4442 26.5951C47.9851 25.9305 47.062 26.4781 46.8954 27.0727C46.5301 28.3767 46.2998 29.5986 45.9379 30.8923C45.0179 34.0268 42.778 36.7234 39.8648 38.2018C39.1945 38.5419 38.5646 38.6537 37.8348 38.4057C37.2213 38.2005 36.7165 37.7567 36.4344 37.1746C35.7922 35.8152 36.8196 33.515 36.8069 32.0446C36.8012 31.3836 36.0831 31.4506 35.8387 31.8618C34.5645 34.0051 32.9297 36.1559 31.7296 38.3189C33.0247 39.5457 34.2705 40.8677 35.5478 42.1153C35.9688 42.5265 36.8128 43.4329 37.2504 43.7815C37.9186 43.4474 38.4664 43.082 39.0826 42.6726C39.4229 42.4465 39.9747 42.015 40.3275 41.8826C40.5005 41.8162 40.6916 41.8143 40.8658 41.8772C41.0228 41.9322 41.1795 42.0767 41.2356 42.2288C41.5952 43.2027 39.0691 44.4569 38.3646 44.8777C38.596 45.3502 38.7537 45.8062 38.5656 46.3285C38.3571 46.9075 35.6113 49.589 35.0334 50.0002H34.5615C34.0649 49.5968 33.4335 48.9308 32.9703 48.4675L30.4465 45.9422L27.3824 42.8824C26.9908 42.4914 25.8547 41.411 25.6186 41.0019C25.6069 40.8159 25.6688 40.6651 25.7593 40.5055C26.0219 40.0429 28.8261 37.184 29.2455 37.0722C29.8049 36.9232 30.1548 37.0078 30.6797 37.2117ZM27.4108 40.8472L32.4607 45.8858C32.8422 46.2672 34.5317 48.0121 34.8653 48.1881C35.5895 47.3833 36.4362 46.6028 37.194 45.8156C36.5052 45.1977 35.7235 44.3756 35.0607 43.7114L31.545 40.1929C31.2814 39.9289 29.9858 38.5877 29.7659 38.4615C29.1369 39.0826 27.9199 40.2235 27.4108 40.8472Z" fill="white"/>
<path d="M21.2926 0H22.1112C22.3187 0.120652 23.2355 0.686899 23.442 0.720488C24.2197 0.847026 25.753 0.830112 26.5348 0.728779C26.7313 0.703311 27.6858 0.10942 27.8761 0H28.6882C29.5431 0.527978 30.9225 1.16449 31.626 1.79551C32.0703 2.194 32.6359 5.95352 30.7311 4.75102C30.443 4.08558 30.519 3.49237 30.5355 2.77481C30.1466 2.51308 28.6433 1.63487 28.2222 1.50207C26.4332 2.5354 26.5605 2.27857 24.5558 2.30822C22.777 2.33453 23.2122 2.18845 21.7506 1.5153L21.7057 1.49488C21.2816 1.66946 19.8653 2.51412 19.4888 2.78054C19.4323 3.28137 19.554 3.94984 19.3577 4.44578C19.2211 4.79079 19.0431 5.09951 18.8533 5.4228C18.0877 6.72705 17.7752 7.71753 16.3294 8.40352C16.0667 8.52812 16.1717 10.7051 16.1759 11.0589C16.4588 11.2118 17.3537 11.6648 17.5356 11.9264C18.1621 12.8272 19.0523 14.2603 19.426 15.2832C19.5147 15.526 19.4602 16.4538 19.4481 16.7281C20.0869 17.1223 21.0629 17.7007 21.7257 18.0304C22.3996 17.6341 22.8846 17.2173 23.716 17.2426C24.7565 17.2744 25.9115 17.1449 26.9332 17.33C27.241 17.3857 27.9833 17.8636 28.3036 18.0346C29.0369 17.6034 29.7736 17.178 30.5136 16.7585C30.5163 16.4317 30.4896 15.3819 30.6306 15.088C31.1082 14.0923 31.8785 12.6593 32.5686 11.8014C32.7365 11.5925 33.5374 11.2102 33.7845 11.0923C33.8665 10.5426 33.8298 9.05972 33.8156 8.45415C33.2745 8.15942 32.5908 7.84414 32.2248 7.32686C32.1033 7.15513 32.0137 6.94082 32.0557 6.72715C32.0962 6.52105 32.251 6.30244 32.4269 6.1896C32.5573 6.10591 32.7289 6.07095 32.8799 6.11025C33.0952 6.16636 34.5517 7.18989 34.7564 7.37578C34.9224 7.52651 35.0501 7.69214 35.1655 7.8834C35.3882 8.25229 35.3394 10.6354 35.263 11.1686C35.1057 12.2678 34.3889 12.2733 33.6549 12.8508C33.3034 13.1273 32.1602 15.1331 32.0534 15.5826C31.9506 16.0154 32.0395 16.4807 31.9761 16.9203C31.9037 17.4233 31.6572 17.7107 31.2578 18.0026C30.7296 18.3886 29.0649 19.3999 28.4491 19.5035C28.3838 19.5149 28.3175 19.5196 28.2513 19.5174C27.4984 19.493 27.1779 18.9346 26.6093 18.8097C25.8679 18.6468 24.0495 18.6761 23.2961 18.8286C22.8454 18.9199 22.1718 19.7249 21.5222 19.5082C20.5056 19.1659 19.5011 18.4676 18.5901 17.8889C17.6593 17.2975 18.1708 16.5188 17.9915 15.7716C17.7956 14.9553 17.0707 14.0175 16.6731 13.25C16.2585 12.4499 14.8924 12.4352 14.7459 11.3632C14.6622 10.3292 14.6525 9.12349 14.7811 8.10195C14.8787 7.32661 15.6485 7.0874 16.2135 6.74341C16.5862 6.49941 17.9683 4.21711 17.9623 3.89195C17.9106 1.10977 18.8047 1.56962 21.2926 0Z" fill="white"/>
</g>
<defs>
<clipPath id="clip0_129_2663">
<rect width="50" height="50" fill="white"/>
</clipPath>
</defs>
</svg>
